<svg xmlns="http://www.w3.org/2000/svg" width="256" height="256" viewBox="0 0 128 128"><defs><linearGradient id="bg" x1="0" x2="1" y1="0" y2="1"><stop offset="0" stop-color="#0b1220"/><stop offset="1" stop-color="#1e293b"/></linearGradient><radialGradient id="gl" cx=".28" cy=".2" r=".9"><stop offset="0" stop-color="#fff" stop-opacity=".22"/><stop offset=".55" stop-color="#fff" stop-opacity="0"/></radialGradient></defs><rect width="128" height="128" fill="url(#bg)" rx="30"/><rect width="128" height="128" fill="url(#gl)" rx="30"/><g stroke="#22d3ee" stroke-opacity=".45" stroke-width="1.5"><line x1="26" x2="64" y1="24" y2="24"/><line x1="26" x2="64" y1="24" y2="44"/><line x1="26" x2="64" y1="24" y2="64"/><line x1="26" x2="64" y1="24" y2="84"/><line x1="26" x2="64" y1="24" y2="104"/><line x1="26" x2="64" y1="64" y2="24"/><line x1="26" x2="64" y1="64" y2="44"/><line x1="26" x2="64" y1="64" y2="64"/><line x1="26" x2="64" y1="64" y2="84"/><line x1="26" x2="64" y1="64" y2="104"/><line x1="26" x2="64" y1="104" y2="24"/><line x1="26" x2="64" y1="104" y2="44"/><line x1="26" x2="64" y1="104" y2="64"/><line x1="26" x2="64" y1="104" y2="84"/><line x1="26" x2="64" y1="104" y2="104"/><line x1="64" x2="102" y1="24" y2="24"/><line x1="64" x2="102" y1="24" y2="64"/><line x1="64" x2="102" y1="24" y2="104"/><line x1="64" x2="102" y1="44" y2="24"/><line x1="64" x2="102" y1="44" y2="64"/><line x1="64" x2="102" y1="44" y2="104"/><line x1="64" x2="102" y1="64" y2="24"/><line x1="64" x2="102" y1="64" y2="64"/><line x1="64" x2="102" y1="64" y2="104"/><line x1="64" x2="102" y1="84" y2="24"/><line x1="64" x2="102" y1="84" y2="64"/><line x1="64" x2="102" y1="84" y2="104"/><line x1="64" x2="102" y1="104" y2="24"/><line x1="64" x2="102" y1="104" y2="64"/><line x1="64" x2="102" y1="104" y2="104"/></g><circle cx="26" cy="24" r="9.5" fill="#22d3ee" fill-opacity=".28"/><circle cx="26" cy="24" r="5" fill="#67e8f9"/><circle cx="26" cy="64" r="9.5" fill="#22d3ee" fill-opacity=".28"/><circle cx="26" cy="64" r="5" fill="#67e8f9"/><circle cx="26" cy="104" r="9.5" fill="#22d3ee" fill-opacity=".28"/><circle cx="26" cy="104" r="5" fill="#67e8f9"/><circle cx="64" cy="24" r="9.5" fill="#22d3ee" fill-opacity=".28"/><circle cx="64" cy="24" r="5" fill="#e0f2fe"/><circle cx="64" cy="44" r="9.5" fill="#22d3ee" fill-opacity=".28"/><circle cx="64" cy="44" r="5" fill="#e0f2fe"/><circle cx="64" cy="64" r="9.5" fill="#22d3ee" fill-opacity=".28"/><circle cx="64" cy="64" r="5" fill="#e0f2fe"/><circle cx="64" cy="84" r="9.5" fill="#22d3ee" fill-opacity=".28"/><circle cx="64" cy="84" r="5" fill="#e0f2fe"/><circle cx="64" cy="104" r="9.5" fill="#22d3ee" fill-opacity=".28"/><circle cx="64" cy="104" r="5" fill="#e0f2fe"/><circle cx="102" cy="24" r="9.5" fill="#22d3ee" fill-opacity=".28"/><circle cx="102" cy="24" r="5" fill="#67e8f9"/><circle cx="102" cy="64" r="9.5" fill="#22d3ee" fill-opacity=".28"/><circle cx="102" cy="64" r="5" fill="#67e8f9"/><circle cx="102" cy="104" r="9.5" fill="#22d3ee" fill-opacity=".28"/><circle cx="102" cy="104" r="5" fill="#67e8f9"/></svg>